<svg width="32" height="32" viewBox="0 0 32 32" fill="none" xmlns="http://www.w3.org/2000/svg">
<rect x="0.666667" y="0.666667" width="30.6667" height="30.6666" fill="#FF0032"/>
<path d="M21.3188 2.43878V3.93167H24.535V9.77237L24.5356 9.86853H26.3362V3.93167H29.5523V2.43878H21.3188Z" fill="white"/>
<path d="M9.73629 2.46102L7.38408 7.34483L5.03184 2.46102H2.46362V9.84565H4.26413V4.56063L6.56335 9.02556H8.20484L10.5047 4.56063V9.84565H12.3052V2.46102H9.73629Z" fill="white"/>
<path d="M27.7472 27.0758C27.7136 27.3485 27.5894 27.602 27.3944 27.7957C27.1919 27.98 26.943 28.1055 26.6745 28.1589C26.2821 28.2366 25.8826 28.2728 25.4827 28.2669C25.0568 28.2745 24.6325 28.2124 24.2267 28.083C23.8941 27.9749 23.6072 27.7586 23.4118 27.4684C23.2155 27.1778 23.1186 26.7583 23.1186 26.2249V25.4683C23.1186 24.931 23.2175 24.5114 23.4118 24.2209C23.6068 23.9313 23.8929 23.7152 24.2247 23.607C24.6305 23.4775 25.0548 23.4154 25.4807 23.423C25.8807 23.4171 26.2802 23.4533 26.6726 23.531C26.9411 23.5845 27.1899 23.7101 27.3925 23.8942C27.5874 24.0879 27.7116 24.3414 27.7452 24.6142H29.5471C29.5145 24.0461 29.2978 23.5042 28.9299 23.0702C28.567 22.6712 28.0973 22.3845 27.5764 22.2443C26.8933 22.0641 26.1884 21.9797 25.482 21.9936C24.6187 21.9936 23.87 22.118 23.2567 22.3627C22.6501 22.5963 22.1419 23.0308 21.8169 23.5938C21.4994 24.139 21.3326 24.8668 21.3214 25.7589V25.8407L21.4177 25.8446H21.3214V25.9264C21.3326 26.8185 21.4994 27.5463 21.8169 28.0915C22.1419 28.6545 22.6501 29.089 23.2567 29.3226C23.8706 29.5674 24.6201 29.6917 25.482 29.6917C26.1884 29.7059 26.8933 29.6216 27.5764 29.441C28.0975 29.3013 28.5673 29.0146 28.9299 28.615C29.298 28.1812 29.5146 27.6392 29.5471 27.0711L27.7472 27.0758Z" fill="white"/>
<rect x="0.666667" y="0.666667" width="30.6667" height="30.6666" stroke="#FF0032" stroke-width="1.33333"/>
</svg>
